<?xml version="1.0" encoding="UTF-8" standalone="no"?>
<!-- Created with Inkscape (http://www.inkscape.org/) -->

<svg
   width="125.56614mm"
   height="130.47571mm"
   viewBox="0 0 125.56614 130.47571"
   version="1.1"
   id="svg5"
   inkscape:version="1.1 (c4e8f9e, 2021-05-24)"
   sodipodi:docname="springkids-flower.svg"
   xmlns:inkscape="http://www.inkscape.org/namespaces/inkscape"
   xmlns:sodipodi="http://sodipodi.sourceforge.net/DTD/sodipodi-0.dtd"
   xmlns="http://www.w3.org/2000/svg"
   xmlns:svg="http://www.w3.org/2000/svg">
  <sodipodi:namedview
     id="namedview7"
     pagecolor="#ffffff"
     bordercolor="#666666"
     borderopacity="1.0"
     inkscape:pageshadow="2"
     inkscape:pageopacity="0.0"
     inkscape:pagecheckerboard="0"
     inkscape:document-units="mm"
     showgrid="false"
     inkscape:zoom="1.7317718"
     inkscape:cx="350.7968"
     inkscape:cy="246.56828"
     inkscape:window-width="1920"
     inkscape:window-height="1080"
     inkscape:window-x="1440"
     inkscape:window-y="0"
     inkscape:window-maximized="0"
     inkscape:current-layer="layer1"
     inkscape:lockguides="false"
     fit-margin-top="0"
     fit-margin-left="0"
     fit-margin-right="0"
     fit-margin-bottom="0" />
  <defs
     id="defs2">
    <rect
       x="280.06"
       y="504.10797"
       width="178.42998"
       height="111.44655"
       id="rect14122" />
  </defs>
  <g
     inkscape:label="Layer 1"
     inkscape:groupmode="layer"
     id="layer1"
     transform="translate(-34.20829,-86.712569)">
    <path
       style="fill:#fffc9a;fill-opacity:1;stroke:#000000;stroke-width:0.132191px;stroke-linecap:butt;stroke-linejoin:miter;stroke-opacity:1"
       d="m 99.514692,108.87692 c 14.070188,-2.10568 22.999408,3.6905 29.780708,12.78812 0.33121,-0.24088 10.50525,-30.216575 -0.16984,-34.29082 -12.49238,-4.767831 -30.019015,20.6281 -29.610868,21.5027 z"
       id="path1136"
       sodipodi:nodetypes="ccsc" />
    <g
       aria-label="R"
       transform="matrix(2.8835635,0,0,2.8835635,-23.415671,-332.37512)"
       id="text62110-5"
       style="font-size:4.89364px;line-height:1.25;font-family:Sathu;-inkscape-font-specification:Sathu;white-space:pre;inline-size:5.55623;stroke-width:0.264583">
      <path
         d="m 49.265173,152.4763 h -0.483987 v -3.70672 h 1.148508 q 0.422527,0 0.633791,0.12292 0.215105,0.11908 0.338023,0.34954 0.126758,0.23047 0.126758,0.49936 0,0.21894 -0.08451,0.41868 -0.08451,0.19974 -0.238152,0.36107 -0.149805,0.16133 -0.468621,0.28809 0.119076,0.0653 0.176693,0.12676 0.06146,0.0576 0.145964,0.19206 0.08835,0.13444 0.153647,0.24967 l 0.591539,1.09857 h -0.553128 l -0.514715,-0.97565 Q 50.052611,151.14726 49.753,150.88222 h -0.487827 z m 0,-1.96283 h 0.472463 q 0.295769,0 0.449416,-0.0922 0.157487,-0.0922 0.245834,-0.26888 0.09219,-0.17669 0.09219,-0.37643 0,-0.17286 -0.07298,-0.31114 -0.06914,-0.13828 -0.211264,-0.23047 -0.138282,-0.0922 -0.468622,-0.0922 h -0.507033 z"
         id="path121" />
    </g>
    <path
       style="fill:#aaff9a;fill-opacity:1;stroke:#000000;stroke-width:0.132191px;stroke-linecap:butt;stroke-linejoin:miter;stroke-opacity:1"
       d="m 129.2954,121.66504 c 6.24712,10.53727 7.16626,22.7445 2.4648,36.71341 0,0 27.32217,-4.64648 27.93589,-15.23549 C 160.414,130.7563 129.2954,121.66504 129.2954,121.66504 Z"
       id="path1138"
       sodipodi:nodetypes="ccsc" />
    <g
       aria-label="I"
       transform="matrix(2.8835635,0,0,2.8835635,1.9461197,-293.41574)"
       id="text62110-3"
       style="font-size:4.89364px;line-height:1.25;font-family:Sathu;-inkscape-font-specification:Sathu;white-space:pre;inline-size:5.55623;stroke-width:0.264583">
      <path
         d="m 49.265173,152.4763 h -0.483987 v -3.70672 h 0.483987 z"
         id="path124" />
    </g>
    <path
       style="fill:#d0f5ff;fill-opacity:1;stroke:#000000;stroke-width:0.132191px;stroke-linecap:butt;stroke-linejoin:miter;stroke-opacity:1"
       d="m 131.7602,158.37845 c -3.40245,9.35096 -12.09995,21.27077 -26.01179,26.64835 0,0 33.53339,24.26616 40.6478,11.79097 8.51333,-14.92821 -14.63601,-38.43932 -14.63601,-38.43932 z"
       id="path1140"
       sodipodi:nodetypes="ccsc" />
    <g
       aria-label="N"
       transform="matrix(2.8835635,0,0,2.8835635,-13.790413,-253.23411)"
       id="text62110-30"
       style="font-size:4.89364px;line-height:1.25;font-family:Sathu;-inkscape-font-specification:Sathu;white-space:pre;inline-size:5.55623;stroke-width:0.264583">
      <path
         d="m 49.226761,152.4763 h -0.445575 v -3.70672 h 0.480146 l 1.693952,2.63504 0.153646,0.29193 -0.0077,-0.29193 v -2.63504 h 0.445575 v 3.70672 h -0.476304 l -1.697794,-2.64656 -0.153646,-0.29961 0.0077,0.29961 z"
         id="path127" />
    </g>
    <path
       style="fill:#daa9ff;fill-opacity:1;stroke:#000000;stroke-width:0.132191px;stroke-linecap:butt;stroke-linejoin:miter;stroke-opacity:1"
       d="m 105.74841,185.0268 c -15.577269,2.97909 -22.755716,2.11455 -33.016877,-8.24712 0,0 -8.423148,36.93873 6.992337,40.09583 17.210629,3.52474 26.02454,-31.84871 26.02454,-31.84871 z"
       id="path1142"
       sodipodi:nodetypes="ccsc" />
    <g
       aria-label="G"
       transform="matrix(2.8835635,0,0,2.8835635,-59.472191,-235.81698)"
       id="text62110-7"
       style="font-size:4.89364px;line-height:1.25;font-family:Sathu;-inkscape-font-specification:Sathu;white-space:pre;inline-size:5.55623;stroke-width:0.264583">
      <path
         d="m 51.435429,152.30729 q -0.591539,0.28041 -1.12546,0.28041 -0.556969,0 -0.902673,-0.21895 -0.341864,-0.22279 -0.549286,-0.63763 -0.203582,-0.41485 -0.203582,-1.06785 0,-0.73366 0.192058,-1.13698 0.195899,-0.40716 0.549286,-0.63763 0.353387,-0.23047 0.841215,-0.23047 0.33034,0 0.603062,0.10755 0.272723,0.10371 0.434051,0.31882 0.161329,0.21126 0.161329,0.42253 v 0.023 h -0.445575 v -0.023 q 0,-0.1306 -0.09987,-0.242 -0.09987,-0.11139 -0.261199,-0.17285 -0.161329,-0.0653 -0.36491,-0.0653 -0.541604,0 -0.82585,0.42637 -0.284246,0.42253 -0.284246,1.16387 0,0.74135 0.291928,1.17156 0.291929,0.43021 0.822009,0.43021 0.311134,0 0.722138,-0.14981 v -1.05632 h -0.833532 v -0.37259 h 1.279107 z"
         id="path130" />
    </g>
    <path
       style="fill:#ffd0f6;fill-opacity:1;stroke:#000000;stroke-width:0.132191px;stroke-linecap:butt;stroke-linejoin:miter;stroke-opacity:1"
       d="m 72.731533,176.77968 c -10.323091,-15.04162 -10.532778,-24.8187 -3.605788,-44.21426 0,0 -29.885406,0.58815 -34.514531,13.68795 -4.531572,12.82374 38.120319,30.52631 38.120319,30.52631 z"
       id="path1144"
       sodipodi:nodetypes="ccsc" />
    <path
       style="fill:#ffde9a;fill-opacity:1;stroke:#000000;stroke-width:0.132191px;stroke-linecap:butt;stroke-linejoin:miter;stroke-opacity:1"
       d="m 69.125745,132.56542 c 6.112017,-12.2797 19.651532,-22.42676 30.388947,-23.6885 0,0 -22.582214,-20.815348 -31.643544,-13.736208 -8.345609,6.519988 1.254597,37.424708 1.254597,37.424708 z"
       id="path1146"
       sodipodi:nodetypes="ccsc" />
    <g
       aria-label="P"
       transform="matrix(2.8835635,0,0,2.8835635,-67.264067,-325.49994)"
       id="text62110-6"
       style="font-size:4.89364px;line-height:1.25;font-family:Sathu;-inkscape-font-specification:Sathu;white-space:pre;inline-size:5.55623;stroke-width:0.264583">
      <path
         d="m 49.265173,152.4763 h -0.483987 v -3.70672 h 1.033273 q 0.591539,0 0.833532,0.11908 0.241993,0.11907 0.36491,0.35338 0.122917,0.23432 0.122917,0.54161 0,0.5224 -0.357228,0.87578 -0.353386,0.35339 -1.052478,0.35339 h -0.460939 z m 0,-1.83607 h 0.326498 q 0.637633,0 0.841215,-0.24584 0.203581,-0.24583 0.203581,-0.58769 0,-0.29961 -0.165169,-0.48015 -0.161329,-0.18438 -0.645316,-0.18438 h -0.560809 z"
         id="path118" />
    </g>
    <ellipse
       style="fill:#9fc7f4;fill-opacity:1;stroke:#000000;stroke-width:0.547115;stroke-miterlimit:4;stroke-dasharray:none;stroke-opacity:1"
       id="path31"
       cx="156.03711"
       cy="85.693817"
       rx="33.689873"
       ry="40.456345"
       transform="rotate(27.171288)" />
    <g
       aria-label="kids"
       transform="matrix(0.61116457,0,0,0.61116457,-101.51443,-190.37466)"
       id="text14120"
       style="font-size:96px;line-height:1.25;font-family:'Party LET';-inkscape-font-specification:'Party LET';white-space:pre;shape-inside:url(#rect14122)">
      <path
         d="m 281.74409,538.87539 h 10.38983 v 7.40757 l 6.06074,-7.40757 h 12.55439 l -11.30376,14.67084 11.88097,17.41259 H 298.96428 L 292.13392,561.05 v 9.90882 h -10.38983 z m 6.06073,28.23535 v -6.49365 l 5.00252,-6.20504 8.7544,12.69869 h 1.49113 l -9.37971,-13.70882 8.6101,-10.67844 h -1.53924 l -12.9392,15.96956 v -15.96956 h -1.25062 v 24.38726 z"
         style="font-size:48.1011px;font-family:Phosphate;-inkscape-font-specification:Phosphate"
         id="path88" />
      <path
         d="m 312.27701,538.87539 h 10.87085 v 32.08343 h -10.87085 z m 6.06074,28.23535 v -24.38726 h -1.25063 v 24.38726 z"
         style="font-size:48.1011px;font-family:Phosphate;-inkscape-font-specification:Phosphate"
         id="path90" />
      <path
         d="m 326.55702,570.95882 v -32.08343 h 8.89871 q 4.5215,0 8.03288,1.01012 3.55948,1.01013 5.96454,3.03037 2.45315,2.02025 3.70378,5.05062 1.29873,2.98227 1.29873,6.92656 0,3.94429 -1.29873,6.97466 -1.25063,2.98226 -3.70378,5.00251 -2.40506,2.02025 -5.96454,3.07847 -3.51138,1.01012 -8.03288,1.01012 z m 6.06074,-5.00251 V 543.8779 h 2.83797 q 6.10884,0 9.47591,2.78987 3.41518,2.74176 3.41518,8.22529 0,5.48352 -3.41518,8.27339 -3.36707,2.78986 -9.47591,2.78986 z m -1.25063,1.15443 h 4.0886 q 7.02276,0 10.58224,-3.17468 3.60758,-3.22277 3.60758,-9.043 0,-5.82024 -3.60758,-8.99491 -3.55948,-3.17467 -10.58224,-3.17467 h -4.0886 z m 5.43543,-5.29113 q 3.60758,0 5.57973,-1.68353 1.97214,-1.73164 1.97214,-5.24302 0,-3.51138 -1.97214,-5.19492 -1.97215,-1.68354 -5.57973,-1.68354 z"
         style="font-size:48.1011px;font-family:Phosphate;-inkscape-font-specification:Phosphate"
         id="path92" />
      <path
         d="m 360.26462,566.77403 q 0.67342,0.1443 1.44303,0.2405 0.67342,0.0962 1.39494,0.19241 0.76961,0.0481 1.53923,0.0481 1.34683,0 2.59746,-0.28861 1.29873,-0.3367 2.30885,-1.05822 1.01013,-0.72152 1.58734,-1.82784 0.62531,-1.15443 0.62531,-2.78987 0,-1.39493 -0.72151,-2.64556 -0.67342,-1.25063 -1.77974,-2.40505 -1.05823,-1.15443 -2.30886,-2.21265 -1.20252,-1.05823 -2.30885,-2.11645 -1.05822,-1.10633 -1.77974,-2.16455 -0.67341,-1.10633 -0.67341,-2.26075 0,-1.73164 1.10632,-2.64556 1.10633,-0.96203 3.55948,-0.96203 0.38481,0 0.76962,0.0481 0.43291,0 0.81772,0.0481 0.38481,0.0481 0.76962,0.0481 v -1.25063 q -0.33671,0 -0.72152,-0.0481 -0.33671,-0.0481 -0.76962,-0.0481 -0.38481,-0.0481 -0.81772,-0.0481 -2.59746,0 -4.28099,1.20252 -1.68354,1.15443 -1.68354,3.65569 0,1.34683 0.67341,2.54936 0.72152,1.15442 1.77974,2.30885 1.10633,1.10632 2.30886,2.16455 1.25062,1.05822 2.30885,2.16455 1.10632,1.05822 1.77974,2.21265 0.72152,1.15442 0.72152,2.40505 0,2.30886 -1.58734,3.51138 -1.53924,1.20253 -4.281,1.20253 -1.63544,0 -2.98227,-0.2405 -0.72151,-0.0962 -1.39493,-0.24051 z m -4.04049,-5.77213 q 1.05822,0.3367 2.21265,0.52911 0.96202,0.2405 2.16455,0.38481 1.25063,0.1443 2.50126,0.1443 2.21265,0 2.21265,-1.63544 0,-0.62531 -0.67342,-1.25063 -0.67341,-0.67341 -1.73164,-1.44303 -1.01012,-0.81772 -2.21265,-1.77974 -1.15443,-0.96202 -2.21265,-2.21265 -1.01012,-1.25063 -1.68354,-2.78986 -0.67341,-1.58734 -0.67341,-3.60759 0,-2.26075 0.81772,-3.99239 0.81771,-1.73164 2.26075,-2.88606 1.44303,-1.15443 3.36707,-1.73164 1.97215,-0.62532 4.1848,-0.62532 1.15443,0 2.30885,0.14431 1.15443,0.0962 2.06835,0.1924 1.05822,0.1443 2.06835,0.28861 v 8.9949 q -0.38481,-0.0481 -0.86582,-0.0962 -0.38481,-0.0481 -0.86582,-0.0962 -0.48101,-0.0481 -1.01013,-0.0481 -0.2886,0 -0.72151,0.0481 -0.43291,0 -0.81772,0.0962 -0.38481,0.0962 -0.67342,0.33671 -0.2886,0.2405 -0.2886,0.67341 0,0.38481 0.62531,0.96203 0.67342,0.57721 1.58734,1.34683 0.96202,0.76961 2.06835,1.77974 1.15442,1.01012 2.06834,2.30885 0.96202,1.29873 1.58734,2.93417 0.67341,1.63543 0.67341,3.65568 0,2.11645 -0.67341,3.99239 -0.67342,1.82784 -2.11645,3.22278 -1.39493,1.34683 -3.60758,2.11644 -2.21265,0.81772 -5.24302,0.81772 -1.82784,0 -3.41518,-0.1924 -1.53924,-0.1443 -2.74176,-0.38481 -1.39493,-0.24051 -2.54936,-0.57721 z"
         style="font-size:48.1011px;font-family:Phosphate;-inkscape-font-specification:Phosphate"
         id="path94" />
    </g>
    <g
       aria-label="S"
       transform="matrix(2.8835635,0,0,2.8835635,-91.402026,-283.2779)"
       id="text62110"
       style="font-size:4.89364px;line-height:1.25;font-family:Sathu;-inkscape-font-specification:Sathu;white-space:pre;inline-size:5.55623;stroke-width:0.264583">
      <path
         d="m 48.69284,151.64277 h 0.480145 v 0.023 q 0,0.30729 0.218946,0.43021 0.218946,0.11907 0.580015,0.11907 0.314976,0 0.52624,-0.18437 0.215105,-0.18438 0.215105,-0.48399 0,-0.24199 -0.184376,-0.39948 -0.184376,-0.15365 -0.556969,-0.30345 l -0.195899,-0.0807 q -0.391798,-0.16132 -0.587698,-0.31881 -0.195899,-0.16133 -0.291928,-0.35339 -0.09603,-0.1959 -0.09603,-0.43405 0,-0.42253 0.29577,-0.71061 0.29961,-0.28809 0.933402,-0.28809 0.580015,0 0.814326,0.2151 0.238152,0.21511 0.238152,0.5032 v 0.023 h -0.480145 v -0.023 q 0,-0.0922 -0.07298,-0.18054 -0.07298,-0.0884 -0.218946,-0.12676 -0.145964,-0.0422 -0.318817,-0.0422 -0.357228,0 -0.53008,0.18053 -0.169011,0.1767 -0.169011,0.40333 0,0.15364 0.08066,0.28808 0.08066,0.13444 0.222788,0.22279 0.142123,0.0883 0.480145,0.23815 l 0.226628,0.096 q 0.545445,0.23815 0.729821,0.49935 0.180535,0.2612 0.180535,0.56081 0,0.28041 -0.149806,0.54161 -0.145964,0.2612 -0.411004,0.39564 -0.261199,0.13444 -0.699091,0.13444 -0.414846,0 -0.695251,-0.0999 -0.276563,-0.096 -0.422527,-0.32266 -0.142123,-0.23047 -0.142123,-0.49935 z"
         id="path115" />
    </g>
  </g>
</svg>
